<?xml version="1.0" encoding="UTF-8"?>
<svg id="Camada_2" data-name="Camada 2" xmlns="http://www.w3.org/2000/svg" viewBox="0 0 323.43 283.97">
  <defs>
    <style>
      .cls-1 {
        fill: none;
      }

      .cls-1, .cls-2, .cls-3 {
        stroke: #000;
        stroke-miterlimit: 10;
      }

      .cls-1, .cls-3 {
        stroke-width: 16px;
      }

      .cls-2 {
        fill: #ccc;
        stroke-width: 10px;
      }

      .cls-3 {
        fill: #fff;
      }
    </style>
  </defs>
  <g id="Camada_1-2" data-name="Camada 1">
    <g>
      <path class="cls-3" d="m161.71,275.97c-17.48.3-211.94-160.1-136.33-240.97,66-70.6,129.65,19.56,136.33,19.56"/>
      <path class="cls-1" d="m161.71,275.97c17.48.3,211.94-160.1,136.33-240.97-66-70.6-129.65,19.56-136.33,19.56"/>
    </g>
    <path class="cls-2" d="m221.66,178.16c-13.57,2.32-25.35-7.83-25.75-20.85h-68.39c-.4,13-12.13,23.13-25.66,20.87-9.33-1.56-16.65-9.17-17.91-18.54-.9-6.66,1.2-12.83,5.15-17.37-3.23-3.87-5.18-8.85-5.18-14.31,0-12.26,9.81-22.2,21.9-22.2s21.56,9.6,21.88,21.57h68.03c.32-11.97,9.99-21.57,21.88-21.57s21.9,9.94,21.9,22.2c0,5.46-1.93,10.45-5.18,14.31,3.95,4.53,6.03,10.68,5.16,17.31-1.23,9.37-8.52,17-17.83,18.6Z"/>
  </g>
</svg>