<?xml version="1.0" encoding="UTF-8"?>
<svg id="Camada_2" data-name="Camada 2" xmlns="http://www.w3.org/2000/svg" viewBox="0 0 323.43 283.97">
  <defs>
    <style>
      .cls-1 {
        fill: #fff;
        stroke-width: 10px;
      }

      .cls-1, .cls-2 {
        stroke: #000;
        stroke-miterlimit: 10;
      }

      .cls-2 {
        fill: red;
        stroke-width: 16px;
      }
    </style>
  </defs>
  <g id="Camada_1-2" data-name="Camada 1">
    <g>
      <path class="cls-2" d="m161.71,275.97c-17.48.3-211.94-160.1-136.33-240.97,66-70.6,129.65,19.56,136.33,19.56"/>
      <path class="cls-2" d="m161.71,275.97c17.48.3,211.94-160.1,136.33-240.97-66-70.6-129.65,19.56-136.33,19.56"/>
    </g>
    <path class="cls-1" d="m239.12,156.36c0,12-9.74,21.74-21.74,21.74s-21.36-9.35-21.72-21.03h-67.89c-.36,11.68-9.94,21.03-21.72,21.03s-21.74-9.74-21.74-21.74c0-5.44,2-10.41,5.32-14.23-3.21-3.84-5.14-8.79-5.14-14.21,0-12.17,9.74-22.04,21.74-22.04s21.4,9.53,21.72,21.41h67.53c.32-11.88,9.92-21.41,21.72-21.41s21.74,9.87,21.74,22.04c0,5.42-1.92,10.37-5.14,14.21,3.33,3.82,5.32,8.79,5.32,14.23Z"/>
  </g>
</svg>