<?xml version="1.0" encoding="UTF-8"?>
<svg id="Camada_2" data-name="Camada 2" xmlns="http://www.w3.org/2000/svg" viewBox="0 0 249.63 124.51">
  <defs>
    <style>
      .cls-1 {
        fill: #fff;
        stroke: #000;
        stroke-miterlimit: 10;
        stroke-width: 10px;
      }
    </style>
  </defs>
  <g id="Camada_1-2" data-name="Camada 1">
    <path class="cls-1" d="m244.63,85.04c0,19.03-15.08,34.47-33.65,34.47s-33.06-14.83-33.62-33.35h-105.09c-.56,18.52-15.39,33.35-33.62,33.35S5,104.07,5,85.04c0-8.63,3.1-16.51,8.23-22.56-4.97-6.09-7.96-13.94-7.96-22.53C5.28,20.65,20.36,5,38.93,5s33.12,15.11,33.62,33.95h104.53c.5-18.84,15.36-33.95,33.62-33.95s33.65,15.65,33.65,34.95c0,8.59-2.97,16.44-7.96,22.53,5.15,6.06,8.23,13.94,8.23,22.56Z"/>
  </g>
</svg>